<svg width="40" height="44" viewBox="0 0 40 44" fill="none" xmlns="http://www.w3.org/2000/svg">
<path d="M0 38.75V16.25C0 15.4583 0.177083 14.7083 0.53125 14C0.885417 13.2917 1.375 12.7083 2 12.25L17 1C17.875 0.333333 18.875 0 20 0C21.125 0 22.125 0.333333 23 1L38 12.25C38.625 12.7083 39.1146 13.2917 39.4688 14C39.8229 14.7083 40 15.4583 40 16.25V38.75C40 40.125 39.5104 41.3021 38.5312 42.2812C37.5521 43.2604 36.375 43.75 35 43.75H27.5C26.7917 43.75 26.1979 43.5104 25.7188 43.0312C25.2396 42.5521 25 41.9583 25 41.25V28.75C25 28.0417 24.7604 27.4479 24.2812 26.9688C23.8021 26.4896 23.2083 26.25 22.5 26.25H17.5C16.7917 26.25 16.1979 26.4896 15.7188 26.9688C15.2396 27.4479 15 28.0417 15 28.75V41.25C15 41.9583 14.7604 42.5521 14.2812 43.0312C13.8021 43.5104 13.2083 43.75 12.5 43.75H5C3.625 43.75 2.44792 43.2604 1.46875 42.2812C0.489583 41.3021 0 40.125 0 38.75Z" fill="#002246"/>
</svg>
