<svg width="48" height="48" viewBox="0 0 48 48" fill="none" xmlns="http://www.w3.org/2000/svg">
<mask id="mask0_34_192" style="mask-type:luminance" maskUnits="userSpaceOnUse" x="4" y="4" width="40" height="40">
<path d="M44 4H4V44H44V4Z" fill="white"/>
</mask>
<g mask="url(#mask0_34_192)">
<path d="M36.6032 11.3239C43.2327 17.9533 42.6075 29.1362 35.4478 36.2958C28.288 43.4557 17.1052 44.0808 10.4757 37.4513C3.84652 30.8218 4.47154 19.6391 11.6312 12.4794C18.7909 5.3198 29.9738 4.69471 36.6032 11.3239Z" fill="#FF8C47" stroke="#581C0E"/>
<path d="M35.0935 11.6412C37.6876 14.2355 38.6005 17.9343 38.0708 21.738C37.5411 25.541 35.5703 29.5027 32.3187 32.7543C29.067 36.006 25.1053 37.9768 21.3023 38.5065C17.4987 39.0362 13.7998 38.1233 11.2056 35.5292C8.6116 32.9348 7.69973 29.237 8.22935 25.4335C8.75893 21.6305 10.7298 17.6689 13.9815 14.4172C17.2332 11.1655 21.1948 9.19456 24.9978 8.66501C28.8012 8.13548 32.4993 9.04733 35.0935 11.6412Z" fill="#FF8C47" stroke="#D65000"/>
<path d="M9.90214 34.5089C15.2822 39.889 25.0954 38.7986 31.8205 32.0735C38.5456 25.3484 39.6359 15.5353 34.2558 10.1552C28.8757 4.77506 19.0626 5.8654 12.3375 12.5905C5.61237 19.3156 4.52204 29.1288 9.90214 34.5089Z" fill="url(#paint0_linear_34_192)"/>
</g>
<path d="M26.9613 12.5907C27.2432 12.5342 27.4909 12.7848 27.4311 13.0661L25.9459 20.053C25.9099 20.2225 25.9871 20.3959 26.1371 20.4826L31.7836 23.7426C32.1192 23.9363 32.0108 24.4463 31.6255 24.4868L25.1406 25.1691C24.9683 25.1872 24.8272 25.3142 24.7912 25.4837L23.3377 32.3214C23.2707 32.6365 22.8778 32.7472 22.6561 32.5134L21.2121 30.9898C21.1635 30.9385 21.1294 30.8754 21.1132 30.8067L19.9903 26.0609C19.944 25.8651 19.7594 25.7342 19.5592 25.7552L12.7758 26.4689C12.436 26.5047 12.2107 26.1255 12.4046 25.8441L12.6937 25.4246C12.7152 25.3934 12.7411 25.3653 12.7706 25.3413L17.65 21.372C17.7901 21.258 17.8365 21.0641 17.763 20.899L15.1178 14.9561C14.9602 14.6021 15.3477 14.2533 15.6832 14.447L21.2837 17.6804C21.4549 17.7793 21.6726 17.7382 21.7961 17.5838L25.4743 12.9842C25.533 12.9107 25.6158 12.8603 25.7081 12.8418L26.9613 12.5907Z" fill="#883511"/>
<path d="M25.5433 12.837C25.8323 12.5597 26.3042 12.8322 26.2086 13.2211L24.7084 19.3255C24.666 19.4983 24.7428 19.6784 24.8969 19.7673L29.8855 22.6475C30.2116 22.8358 30.1206 23.3293 29.7488 23.3889L23.7239 24.3549C23.5652 24.3803 23.4372 24.4983 23.3988 24.6544L21.867 30.8872C21.7735 31.268 21.2447 31.3007 21.1049 30.9344L19.0054 25.4338C18.9379 25.2568 18.7554 25.1515 18.5684 25.1815L12.755 26.1135C12.3678 26.1756 12.1318 25.7014 12.4148 25.4299L17.0467 20.987C17.1627 20.8757 17.2008 20.7058 17.1435 20.5557L14.9676 14.855C14.8333 14.5032 15.2152 14.1776 15.5413 14.3659L20.5299 17.2461C20.6841 17.3351 20.8784 17.3115 21.0068 17.1884L25.5433 12.837Z" fill="#D65000"/>
<defs>
<linearGradient id="paint0_linear_34_192" x1="34.2559" y1="10.1551" x2="9.90202" y2="34.509" gradientUnits="userSpaceOnUse">
<stop stop-color="#FF6910"/>
<stop offset="0.442308" stop-color="#FFDFCC"/>
<stop offset="1" stop-color="#FF6910"/>
</linearGradient>
</defs>
</svg>
