<svg width="24" height="24" viewBox="0 0 24 24" fill="none" xmlns="http://www.w3.org/2000/svg">
<g clip-path="url(#clip0_238_3386)">
<mask id="mask0_238_3386" style="mask-type:luminance" maskUnits="userSpaceOnUse" x="0" y="0" width="24" height="24">
<path d="M24 0H0V24H24V0Z" fill="white"/>
</mask>
<g mask="url(#mask0_238_3386)">
<path d="M19.5619 4.39436C23.5396 8.37201 23.1645 15.0817 18.8687 19.3775C14.5728 23.6734 7.86315 24.0485 3.88548 20.0708C-0.0920584 16.0931 0.282956 9.38347 4.57877 5.08766C8.87459 0.791896 15.5843 0.416845 19.5619 4.39436Z" fill="#FF8C47" stroke="#581C0E"/>
<path d="M18.6559 4.58467C20.2124 6.14122 20.7601 8.36054 20.4423 10.6427C20.1245 12.9245 18.942 15.3015 16.991 17.2525C15.04 19.2035 12.663 20.386 10.3812 20.7038C8.09896 21.0216 5.87964 20.4739 4.32309 18.9174C2.76672 17.3608 2.2196 15.1421 2.53737 12.86C2.85512 10.5782 4.03763 8.20127 5.98866 6.25024C7.93969 4.29926 10.3167 3.11668 12.5985 2.79895C14.8805 2.48123 17.0994 3.02834 18.6559 4.58467Z" fill="#FF8C47" stroke="#D65000"/>
<path d="M3.54129 18.3053C6.76935 21.5333 12.6573 20.8791 16.6923 16.8441C20.7274 12.809 21.3816 6.92112 18.1535 3.69306C14.9255 0.465003 9.03754 1.1192 5.00248 5.15425C0.967431 9.18931 0.313231 15.0772 3.54129 18.3053Z" fill="url(#paint0_linear_238_3386)"/>
<path d="M15.4781 6.80522C16.4949 7.82212 16.7542 9.26004 16.5125 10.6322C16.2701 12.0081 15.5177 13.4168 14.358 14.5765C13.1984 15.736 11.7901 16.4878 10.4144 16.7303C9.04222 16.972 7.6037 16.7134 6.58676 15.6965C5.56981 14.6796 5.31127 13.2411 5.55303 11.8689C5.7955 10.4931 6.54724 9.08488 7.70681 7.92526C8.86653 6.76554 10.2752 6.01322 11.6511 5.7708C13.0232 5.52911 14.4612 5.78833 15.4781 6.80522Z" fill="#FF8C47" stroke="#D65000" stroke-width="2"/>
<path d="M7.74972 16.2578C9.5306 18.0386 12.8449 17.6117 15.1524 15.3042C17.4599 12.9967 17.8868 9.68244 16.1059 7.90156C14.325 6.12069 11.0108 6.5476 8.70325 8.8551C6.39575 11.1626 5.96884 14.4769 7.74972 16.2578Z" fill="#FF8C47"/>
</g>
</g>
<defs>
<linearGradient id="paint0_linear_238_3386" x1="18.1535" y1="3.69305" x2="3.54122" y2="18.3054" gradientUnits="userSpaceOnUse">
<stop stop-color="#FF6910"/>
<stop offset="0.442308" stop-color="#FFDFCC"/>
<stop offset="1" stop-color="#FF6910"/>
</linearGradient>
<clipPath id="clip0_238_3386">
<rect width="24" height="24" fill="white"/>
</clipPath>
</defs>
</svg>
