<svg width="14" height="14" viewBox="0 0 14 14" fill="none" xmlns="http://www.w3.org/2000/svg">
<path d="M7 6.22222C8.94444 6.22222 10.5972 5.91759 11.9583 5.30833C13.3194 4.69907 14 3.96667 14 3.11111C14 2.25556 13.3194 1.52315 11.9583 0.913889C10.5972 0.30463 8.94444 0 7 0C5.05556 0 3.40278 0.30463 2.04167 0.913889C0.680556 1.52315 0 2.25556 0 3.11111C0 3.96667 0.680556 4.69907 2.04167 5.30833C3.40278 5.91759 5.05556 6.22222 7 6.22222ZM7 8.16667C7.53148 8.16667 8.19583 8.11157 8.99306 8.00139C9.79028 7.8912 10.5583 7.71296 11.2972 7.46667C12.0361 7.22037 12.6713 6.89954 13.2028 6.50417C13.7343 6.1088 14 5.62593 14 5.05556V7C14 7.57037 13.7343 8.05324 13.2028 8.44861C12.6713 8.84398 12.0361 9.16482 11.2972 9.41111C10.5583 9.65741 9.79028 9.83565 8.99306 9.94583C8.19583 10.056 7.53148 10.1111 7 10.1111C6.46852 10.1111 5.80417 10.056 5.00694 9.94583C4.20972 9.83565 3.44167 9.65741 2.70278 9.41111C1.96389 9.16482 1.3287 8.84398 0.797222 8.44861C0.265741 8.05324 0 7.57037 0 7V5.05556C0 5.62593 0.265741 6.1088 0.797222 6.50417C1.3287 6.89954 1.96389 7.22037 2.70278 7.46667C3.44167 7.71296 4.20972 7.8912 5.00694 8.00139C5.80417 8.11157 6.46852 8.16667 7 8.16667ZM7 12.0556C7.53148 12.0556 8.19583 12.0005 8.99306 11.8903C9.79028 11.7801 10.5583 11.6019 11.2972 11.3556C12.0361 11.1093 12.6713 10.7884 13.2028 10.3931C13.7343 9.99769 14 9.51482 14 8.94444V10.8889C14 11.4593 13.7343 11.9421 13.2028 12.3375C12.6713 12.7329 12.0361 13.0537 11.2972 13.3C10.5583 13.5463 9.79028 13.7245 8.99306 13.8347C8.19583 13.9449 7.53148 14 7 14C6.46852 14 5.80417 13.9449 5.00694 13.8347C4.20972 13.7245 3.44167 13.5463 2.70278 13.3C1.96389 13.0537 1.3287 12.7329 0.797222 12.3375C0.265741 11.9421 0 11.4593 0 10.8889V8.94444C0 9.51482 0.265741 9.99769 0.797222 10.3931C1.3287 10.7884 1.96389 11.1093 2.70278 11.3556C3.44167 11.6019 4.20972 11.7801 5.00694 11.8903C5.80417 12.0005 6.46852 12.0556 7 12.0556Z" fill="#FF6910"/>
</svg>
