<svg width="24" height="24" viewBox="0 0 24 24" fill="none" xmlns="http://www.w3.org/2000/svg">
<g clip-path="url(#clip0_238_3398)">
<mask id="mask0_238_3398" style="mask-type:luminance" maskUnits="userSpaceOnUse" x="0" y="0" width="24" height="24">
<path d="M24 0H0V24H24V0Z" fill="white"/>
</mask>
<g mask="url(#mask0_238_3398)">
<path d="M19.5614 4.39436C23.5391 8.37201 23.164 15.0817 18.8682 19.3775C14.5723 23.6734 7.86266 24.0485 3.88499 20.0708C-0.0925467 16.0931 0.282467 9.38347 4.57828 5.08766C8.8741 0.791896 15.5838 0.416845 19.5614 4.39436Z" fill="url(#paint0_linear_238_3398)" stroke="#581C0E"/>
<path d="M18.6559 4.58467C20.2124 6.14122 20.7601 8.36054 20.4423 10.6427C20.1245 12.9245 18.942 15.3015 16.991 17.2525C15.04 19.2035 12.663 20.386 10.3812 20.7038C8.09896 21.0216 5.87964 20.4739 4.32309 18.9174C2.76672 17.3608 2.2196 15.1421 2.53737 12.86C2.85512 10.5782 4.03763 8.20127 5.98866 6.25024C7.93969 4.29926 10.3167 3.11668 12.5985 2.79895C14.8805 2.48123 17.0994 3.02834 18.6559 4.58467Z" stroke="#D65000"/>
<path d="M3.58318 18.2643C6.79312 21.4742 12.648 20.8237 16.6604 16.8113C20.6728 12.7989 21.3233 6.94404 18.1134 3.7341C14.9034 0.524164 9.04858 1.17469 5.03618 5.18709C1.02378 9.19949 0.373248 15.0544 3.58318 18.2643Z" fill="url(#paint1_linear_238_3398)"/>
<path d="M3.58318 18.2643C6.79312 21.4742 12.648 20.8237 16.6604 16.8113C20.6728 12.7989 21.3233 6.94404 18.1134 3.7341C14.9034 0.524164 9.04858 1.17469 5.03618 5.18709C1.02378 9.19949 0.373248 15.0544 3.58318 18.2643Z" fill="#FFF2EB"/>
<path d="M17.0676 5.05736C19.6805 7.67025 19.2567 12.6158 15.7485 16.1241C12.2402 19.632 7.29537 20.0552 4.68256 17.4423C2.06984 14.8296 2.49293 9.88464 6.00087 6.37647C9.50906 2.86826 14.4546 2.44456 17.0676 5.05736Z" fill="#FFF2EB"/>
<path d="M14.0312 3.43464C13.8116 3.78592 13.9184 4.24862 14.2697 4.46813C14.621 4.68764 15.0837 4.58083 15.3032 4.22955L14.6671 3.83211L14.0312 3.43464ZM15.7271 2.13603L15.091 1.73859L14.0312 3.43464L14.6671 3.83211L15.3032 4.22955L16.3631 2.5335L15.7271 2.13603Z" fill="#FF6910"/>
<path d="M7.22595 18.3962C7.43348 18.0367 7.31034 17.5772 6.95089 17.3696C6.59144 17.1621 6.13182 17.2852 5.92429 17.6447L6.57512 18.0204L7.22595 18.3962ZM6.57512 18.0204L5.92429 17.6447L4.92228 19.3803L5.57311 19.756L6.22394 20.1318L7.22595 18.3962L6.57512 18.0204Z" fill="#FF6910"/>
<path d="M15.4753 15.5028C15.1379 15.1654 14.5909 15.1654 14.2535 15.5028C13.9161 15.8402 13.9161 16.3872 14.2535 16.7245L14.8643 16.1136L15.4753 15.5028ZM16.0897 17.3389L16.7005 16.7281L15.4753 15.5028L14.8643 16.1136L14.2535 16.7245L15.4788 17.9498L16.0897 17.3389Z" fill="#FF6910"/>
<path d="M5.27509 7.32198C5.61245 7.65934 6.15942 7.65934 6.49679 7.32198C6.83414 6.98461 6.83414 6.43765 6.49679 6.10029L5.88594 6.71113L5.27509 7.32198ZM5.88594 6.71113L6.49679 6.10029L5.2715 4.875L4.66065 5.48585L4.0498 6.09669L5.27509 7.32198L5.88594 6.71113Z" fill="#FF6910"/>
<path d="M14.2252 6.16696L11.8047 9.2248C11.5078 9.59977 11.4926 10.2591 11.7715 10.6617C12.0504 11.0643 12.507 11.0424 12.7667 10.6139L14.8847 7.11916C15.0467 6.8518 15.0375 6.44886 14.8634 6.19764C14.6894 5.94644 14.4103 5.93302 14.2252 6.16696Z" fill="#FF6910"/>
<path d="M3.50942 10.6023L10.123 12.5505C10.7256 12.7281 11.3694 12.412 11.5334 11.858C11.6974 11.3041 11.3145 10.7389 10.6946 10.62L3.89068 9.31467C3.50701 9.24108 3.12679 9.45206 3.02528 9.79488C2.92378 10.1377 3.13649 10.4925 3.50942 10.6023Z" fill="#FF6910"/>
<path d="M11.8418 12.6333C12.7695 11.7404 12.9575 10.4737 12.2617 9.80408C11.566 9.13442 10.2499 9.31537 9.32227 10.2083C8.3946 11.1011 8.20659 12.3678 8.90234 13.0375C9.59809 13.7071 10.9141 13.5262 11.8418 12.6333Z" fill="#D65000"/>
<path d="M11.1693 11.9874C11.8081 11.3726 11.9376 10.5004 11.4585 10.0393C10.9794 9.57814 10.0732 9.70274 9.43443 10.3176C8.79566 10.9324 8.6662 11.8046 9.14528 12.2657C9.62436 12.7268 10.5306 12.6022 11.1693 11.9874Z" fill="#FFE5D6"/>
</g>
</g>
<defs>
<linearGradient id="paint0_linear_238_3398" x1="20.965" y1="1.62561" x2="2.48148" y2="22.8397" gradientUnits="userSpaceOnUse">
<stop stop-color="#FF6910"/>
<stop offset="0.44" stop-color="#FFDFCC"/>
<stop offset="1" stop-color="#FF6910"/>
</linearGradient>
<linearGradient id="paint1_linear_238_3398" x1="18.1134" y1="3.73409" x2="3.58311" y2="18.2644" gradientUnits="userSpaceOnUse">
<stop stop-color="#FF6910"/>
<stop offset="0.44" stop-color="#FFDFCC"/>
<stop offset="1" stop-color="#FF6910"/>
</linearGradient>
<clipPath id="clip0_238_3398">
<rect width="24" height="24" fill="white"/>
</clipPath>
</defs>
</svg>
