<svg width="143" height="265" viewBox="0 0 143 265" fill="none" xmlns="http://www.w3.org/2000/svg">
<path d="M57.5918 16.9066L85.7288 33.2783M85.7288 33.2783L113.866 16.9066M85.7288 33.2783V66.2621M85.7263 66.0286L113.863 82.4003M113.863 82.4003L142 66.0286M113.863 82.4003V115.384M57.5918 115.501L85.7288 131.873M85.7288 131.873L113.866 115.501M85.7288 131.873V164.857M1 116.05L29.137 132.421M29.137 132.421L57.2737 116.05M29.137 132.421V165.405M29.1344 165.172L57.2714 181.543M57.2714 181.543L85.4082 165.172M57.2714 181.543V214.527M1 214.645L29.137 231.016M29.137 231.016L57.2737 214.645M29.137 231.016V264M113.866 16.8723L85.7288 1L57.5918 16.8723V49.9621L85.7288 66.1741L113.866 49.9621V16.8723ZM142 65.9943L113.863 50.122L85.7263 65.9943V99.0841L113.863 115.296L142 99.0841V65.9943ZM113.866 115.467L85.7288 99.5949L57.5918 115.467V148.557L85.7288 164.769L113.866 148.557V115.467ZM57.2737 116.015L29.137 100.143L1 116.015V149.105L29.137 165.317L57.2737 149.105V116.015ZM85.4082 165.137L57.2714 149.265L29.1344 165.137V198.227L57.2714 214.439L85.4082 198.227V165.137ZM57.2737 214.61L29.137 198.738L1 214.61V247.7L29.137 263.912L57.2737 247.7V214.61Z" stroke="white" stroke-opacity="0.2"/>
</svg>
