<svg width="48" height="48" viewBox="0 0 48 48" fill="none" xmlns="http://www.w3.org/2000/svg">
<path d="M14 35H34V42H14V35Z" fill="#47526B"/>
<path d="M16 33.9277L14 35H34L32 33.9277H16Z" fill="#5C6A8A"/>
<path d="M12 42H36V44H12V42Z" fill="#333B4D"/>
<path d="M25 22.72L25.3996 25.3142C25.7781 27.7713 27.2774 29.9127 29.4567 31.109L31.4812 32.2204C31.8012 32.396 32 32.732 32 33.097V34.0049H16V33.0795C16 32.7238 16.1889 32.395 16.4961 32.2157L18.7261 30.9148C20.7983 29.7059 22.2186 27.6309 22.5955 25.2616L22.9998 22.72H25Z" fill="#9A9A9A"/>
<path d="M27.9465 32.9595C24.8481 30.5995 24.0294 26.7978 24.0008 25.0921C23.9998 25.0327 24.0264 24.978 24.072 24.94L24.918 24.235C25.0397 24.1336 25.2261 24.2085 25.2489 24.3652C25.9175 28.957 28.2674 30.7262 31.6554 32.3381C31.865 32.4379 32 32.6485 32 32.8807C32 32.9466 31.9466 33 31.8807 33H28.0667C28.0234 33 27.9809 32.9858 27.9465 32.9595Z" fill="#808080"/>
<path d="M33.6241 6.26754C34.4534 6.48545 35.0087 7.2444 34.9477 8.09971C34.4055 15.7128 29.711 25 23.9999 25C18.2888 25 13.5944 15.7127 13.0523 8.09968C12.9913 7.24437 13.5466 6.48542 14.3759 6.26751C16.2526 5.77439 19.859 5 23.9999 5C28.1408 5 31.7473 5.77441 33.6241 6.26754Z" fill="#9A9A9A"/>
<path d="M19.0029 21.2034C14.8332 17.1035 14.0166 10.3516 14.0003 7.48795C13.9999 7.43027 14.0237 7.37827 14.0696 7.34337C14.9773 6.65348 17.8487 6.12324 18.978 6.01876C19.1261 6.00507 19.2227 6.15529 19.1625 6.29123C17.5206 9.99771 17.9215 17.3444 19.3653 20.9295C19.4497 21.139 19.164 21.3618 19.0029 21.2034Z" fill="#B3B3B3"/>
<path d="M25 25C29.7344 24.1876 34.6083 15.0592 34.982 8.19723C35.0222 7.46025 34.5927 6.78339 33.9235 6.47217C32.8568 5.97614 32.3446 5.89077 30 5.5C29.2 15.9 25.6666 23 23.9999 25H25Z" fill="#808080"/>
<path d="M21 24C22 25 24.6667 25.1733 25 24.84L27 21L25.5811 22.4189C24.9797 23.0203 24.1761 23.3336 23.3633 23.3275C22.5187 23.3212 21.5972 23.4028 21 24Z" fill="url(#paint0_linear_34_184)"/>
<path d="M16 33H28V34H16V33Z" fill="#666666"/>
<path d="M28 33H32V34H28V33Z" fill="#4C4C4C"/>
<path d="M36.2559 7.63112C37.2258 6.83037 37.935 6.73295 38.8677 7.1853C39.6609 7.53647 40.5047 8.07939 41.0073 9.03957C41.5182 10.0027 41.4354 11.1459 41.1616 11.9998C40.5775 13.7609 39.5084 15.0161 38.4141 16.1988C36.1917 18.5121 33.6452 20.3325 31.0212 21.9902C30.8432 22.0913 30.7464 22.3388 30.8092 22.5432C30.8149 22.5629 30.8214 22.5825 30.8297 22.6018C31.0091 22.996 31.1893 23.3917 31.3688 23.7859C31.422 23.9031 31.4294 24.039 31.3892 24.163C31.3487 24.2871 31.2637 24.3899 31.1531 24.4482C31.0424 24.5065 30.9133 24.5159 30.7944 24.4756C30.6756 24.4351 30.5749 24.3486 30.5174 24.2333C30.3252 23.8461 30.1333 23.4579 29.9411 23.0707C29.9118 23.0108 29.8847 22.9489 29.8631 22.8851C29.6299 22.224 29.8997 21.4279 30.4709 21.0582C32.9921 19.3408 35.4257 17.4533 37.4363 15.2062C39.4116 13.1107 41.1338 9.6172 38.2468 8.81878C36.9204 8.22316 35.9737 9.23707 35.6963 10.7649C35.6308 11.1372 35.6234 11.5412 35.6833 11.8083C35.7369 12.0673 35.6894 12.3361 35.5495 12.5566C35.4095 12.7773 35.1878 12.9316 34.936 12.9846C34.6847 13.0372 35.1457 13.1313 34.936 12.9846C34.7259 12.8374 34.5834 12.607 34.5382 12.3459C34.4258 11.6679 34.4864 11.0884 34.5996 10.521C34.8336 9.45633 35.2968 8.39389 36.2559 7.63112Z" fill="#666666"/>
<path d="M11.7093 7.63112C10.7394 6.83037 10.0302 6.73295 9.09753 7.1853C8.30432 7.53647 7.46048 8.07939 6.95791 9.03957C6.44704 10.0027 6.52981 11.1459 6.80362 11.9998C7.38771 13.7609 8.45676 15.0161 9.5511 16.1988C11.7735 18.5121 14.32 20.3325 16.944 21.9902C17.122 22.0913 17.2188 22.3388 17.1559 22.5432C17.1502 22.5629 17.1438 22.5825 17.1355 22.6018C16.9561 22.996 16.7759 23.3917 16.5964 23.7859C16.5432 23.9031 16.5357 24.039 16.576 24.163C16.6165 24.2871 16.7015 24.3899 16.812 24.4482C16.9228 24.5065 17.0519 24.5159 17.1708 24.4756C17.2896 24.4351 17.3903 24.3486 17.4478 24.2333C17.64 23.8461 17.8319 23.4579 18.0241 23.0707C18.0534 23.0108 18.0805 22.9489 18.1021 22.8851C18.3353 22.224 18.0655 21.4279 17.4943 21.0582C14.9731 19.3408 12.5395 17.4533 10.5289 15.2062C8.55358 13.1107 6.83142 9.6172 9.71841 8.81878C11.0448 8.22316 11.9915 9.23707 12.2688 10.7649C12.3344 11.1372 12.3418 11.5412 12.2819 11.8083C12.2283 12.0673 12.2758 12.3361 12.4157 12.5566C12.5557 12.7773 12.7774 12.9316 13.0291 12.9846C12.8195 13.1313 13.2805 13.0372 13.0291 12.9846C13.2392 12.8374 13.3818 12.607 13.427 12.3459C13.5394 11.6679 13.4788 11.0884 13.3656 10.521C13.1316 9.45633 12.6684 8.39389 11.7093 7.63112Z" fill="#808080"/>
<path d="M35.8243 7.48322C36.8434 6.6828 38.3463 6.73223 39.3263 7.18439C40.1597 7.53543 41.0463 8.07812 41.5743 9.03791C42.1111 10.0006 42.0241 11.1434 41.7364 11.9969C41.1227 13.7573 39.9995 15.012 38.8497 16.1942C36.5147 18.5065 33.8391 20.3262 31.0821 21.9832C30.8952 22.0843 30.7934 22.3317 30.8595 22.536C30.8655 22.5557 30.8722 22.5753 30.881 22.5946C31.0695 22.9886 31.2588 23.3841 31.4474 23.7781C31.5032 23.8954 31.5111 24.0312 31.4689 24.1551C31.4263 24.2792 31.3369 24.3819 31.2208 24.4403C31.1044 24.4984 30.9688 24.5079 30.8439 24.4676C30.719 24.4271 30.6132 24.3407 30.5528 24.2254C30.3509 23.8384 30.1493 23.4504 29.9474 23.0633C29.9166 23.0034 29.8881 22.9416 29.8653 22.8778C29.6204 22.2169 29.9038 21.4212 30.504 21.0516C33.153 19.3349 35.7099 17.4482 37.8224 15.202C39.8978 13.1074 41.7072 9.6153 38.6739 8.81721C37.2803 8.22183 36.2856 9.23532 35.9942 10.7625C35.9254 11.1347 35.9176 11.5385 35.9806 11.8055C36.0369 12.0644 35.987 12.3331 35.84 12.5535C35.6929 12.7741 35.46 12.9284 35.1954 12.9813C34.9313 13.0339 34.6579 12.9814 34.4376 12.8348C34.2169 12.6877 34.0671 12.4571 34.0196 12.1961C33.9015 11.5183 33.9652 10.9391 34.0841 10.3719C34.33 9.30768 34.8166 8.24567 35.8243 7.48322Z" fill="#808080"/>
<path d="M12.1409 7.48322C11.1218 6.6828 9.61889 6.73223 8.63891 7.18439C7.80551 7.53543 6.91891 8.07812 6.39087 9.03791C5.85411 10.0006 5.94107 11.1434 6.22876 11.9969C6.84245 13.7573 7.96567 15.012 9.11547 16.1942C11.4505 18.5065 14.1261 20.3262 16.8831 21.9832C17.07 22.0843 17.1718 22.3317 17.1057 22.536C17.0997 22.5557 17.093 22.5753 17.0842 22.5946C16.8957 22.9886 16.7064 23.3841 16.5178 23.7781C16.462 23.8954 16.4541 24.0312 16.4963 24.1551C16.5389 24.2792 16.6283 24.3819 16.7444 24.4403C16.8608 24.4984 16.9964 24.5079 17.1213 24.4676C17.2462 24.4271 17.352 24.3407 17.4123 24.2254C17.6143 23.8384 17.8159 23.4504 18.0178 23.0633C18.0486 23.0034 18.0771 22.9416 18.0998 22.8778C18.3448 22.2169 18.0614 21.4212 17.4612 21.0516C14.8122 19.3349 12.2553 17.4482 10.1428 15.202C8.0674 13.1074 6.25797 9.6153 9.29126 8.81721C10.6849 8.22183 11.6796 9.23532 11.9709 10.7625C12.0398 11.1347 12.0476 11.5385 11.9846 11.8055C11.9283 12.0644 11.9782 12.3331 12.1252 12.5535C12.2723 12.7741 12.5052 12.9284 12.7698 12.9813C13.0339 13.0339 13.3073 12.9814 13.5276 12.8348C13.7483 12.6877 13.8981 12.4571 13.9456 12.1961C14.0637 11.5183 14 10.9391 13.8811 10.3719C13.6352 9.30768 13.1486 8.24567 12.1409 7.48322Z" fill="#9A9A9A"/>
<path d="M19.7147 10.8781C19.8045 10.6017 20.1955 10.6017 20.2853 10.8781L20.8307 12.5566C20.8709 12.6802 20.9861 12.7639 21.116 12.7639H22.8809C23.1715 12.7639 23.2924 13.1358 23.0573 13.3066L21.6294 14.344C21.5243 14.4204 21.4803 14.5558 21.5204 14.6794L22.0658 16.358C22.1556 16.6343 21.8393 16.8642 21.6042 16.6934L20.1763 15.656C20.0712 15.5796 19.9288 15.5796 19.8237 15.656L18.3958 16.6934C18.1607 16.8642 17.8444 16.6343 17.9342 16.358L18.4796 14.6794C18.5197 14.5558 18.4757 14.4204 18.3706 14.344L16.9427 13.3066C16.7076 13.1358 16.8285 12.7639 17.1191 12.7639H18.884C19.014 12.7639 19.1291 12.6802 19.1693 12.5566L19.7147 10.8781Z" fill="#4C4C4C"/>
<path d="M27.7147 10.8781C27.8045 10.6017 28.1955 10.6017 28.2853 10.8781L28.8307 12.5566C28.8709 12.6802 28.9861 12.7639 29.116 12.7639H30.8809C31.1715 12.7639 31.2924 13.1358 31.0573 13.3066L29.6294 14.344C29.5243 14.4204 29.4803 14.5558 29.5204 14.6794L30.0658 16.358C30.1556 16.6343 29.8393 16.8642 29.6042 16.6934L28.1763 15.656C28.0712 15.5796 27.9288 15.5796 27.8237 15.656L26.3958 16.6934C26.1607 16.8642 25.8444 16.6343 25.9342 16.358L26.4796 14.6794C26.5197 14.5558 26.4757 14.4204 26.3706 14.344L24.9427 13.3066C24.7076 13.1358 24.8285 12.7639 25.1191 12.7639H26.884C27.014 12.7639 27.1291 12.6802 27.1693 12.5566L27.7147 10.8781Z" fill="#4C4C4C"/>
<defs>
<linearGradient id="paint0_linear_34_184" x1="6" y1="27.433" x2="37.9414" y2="33.9338" gradientUnits="userSpaceOnUse">
<stop stop-color="#9A9A9A"/>
<stop offset="0.678627" stop-color="#808080"/>
</linearGradient>
</defs>
</svg>
